G04*
G04 #@! TF.GenerationSoftware,Altium Limited,Altium Designer,20.0.13 (296)*
G04*
G04 Layer_Color=16711935*
%FSLAX44Y44*%
%MOMM*%
G71*
G01*
G75*
%ADD10C,0.2540*%
%ADD14C,0.1000*%
%ADD15C,0.0500*%
%ADD28C,1.7272*%
%ADD29P,3.6841X8X202.5*%
%ADD30P,4.5495X8X22.5*%
%ADD31R,2.1832X2.1832*%
%ADD32C,2.1832*%
%ADD33C,1.4732*%
D10*
X-39880Y760730D02*
X960120D01*
Y560730D02*
Y760730D01*
Y160730D02*
Y560730D01*
Y-39270D02*
Y160730D01*
X-39880Y360730D02*
Y760730D01*
Y-39270D02*
Y360730D01*
X710120Y-39270D02*
X960120D01*
X210120D02*
X710120D01*
X-39880D02*
X210120D01*
D14*
X558600Y220220D02*
Y252220D01*
X533600Y220220D02*
X558600D01*
X533600D02*
Y252220D01*
X558600D01*
X602787Y164570D02*
Y229570D01*
X673988D01*
Y164570D02*
Y229570D01*
X602787Y164570D02*
X673988D01*
X602787Y189970D02*
X628187Y164570D01*
X481400Y316952D02*
X585400D01*
Y270952D02*
Y316952D01*
X481400Y270952D02*
X585400D01*
X481400D02*
Y316952D01*
Y304202D02*
X494150Y316952D01*
X848430Y381290D02*
X952430D01*
Y335290D02*
Y381290D01*
X848430Y335290D02*
X952430D01*
X848430D02*
Y381290D01*
Y368540D02*
X861180Y381290D01*
X818688Y425215D02*
Y490215D01*
X889887D01*
Y425215D02*
Y490215D01*
X818688Y425215D02*
X889887D01*
X818688Y450615D02*
X844088Y425215D01*
X699830Y424385D02*
Y489385D01*
X771030D01*
Y424385D02*
Y489385D01*
X699830Y424385D02*
X771030D01*
X699830Y449785D02*
X725230Y424385D01*
X581323Y425215D02*
Y490215D01*
X652523D01*
Y425215D02*
Y490215D01*
X581323Y425215D02*
X652523D01*
X581323Y450615D02*
X606723Y425215D01*
X463213Y425655D02*
Y490655D01*
X534412D01*
Y425655D02*
Y490655D01*
X463213Y425655D02*
X534412D01*
X463213Y451055D02*
X488613Y425655D01*
X343833Y425215D02*
Y490215D01*
X415033D01*
Y425215D02*
Y490215D01*
X343833Y425215D02*
X415033D01*
X343833Y450615D02*
X369233Y425215D01*
X226145Y425655D02*
Y490655D01*
X297345D01*
Y425655D02*
Y490655D01*
X226145Y425655D02*
X297345D01*
X226145Y451055D02*
X251545Y425655D01*
X107613Y425215D02*
Y490215D01*
X178813D01*
Y425215D02*
Y490215D01*
X107613Y425215D02*
X178813D01*
X107613Y450615D02*
X133013Y425215D01*
X874990Y218960D02*
Y283960D01*
X946190D01*
Y218960D02*
Y283960D01*
X874990Y218960D02*
X946190D01*
X874990Y244360D02*
X900390Y218960D01*
X53635Y587765D02*
X157635D01*
Y541765D02*
Y587765D01*
X53635Y541765D02*
X157635D01*
X53635D02*
Y587765D01*
Y575015D02*
X66385Y587765D01*
X289855D02*
X393855D01*
Y541765D02*
Y587765D01*
X289855Y541765D02*
X393855D01*
X289855D02*
Y587765D01*
Y575015D02*
X302605Y587765D01*
X171745D02*
X275745D01*
Y541765D02*
Y587765D01*
X171745Y541765D02*
X275745D01*
X171745D02*
Y587765D01*
Y575015D02*
X184495Y587765D01*
X407765D02*
X511765D01*
Y541765D02*
Y587765D01*
X407765Y541765D02*
X511765D01*
X407765D02*
Y587765D01*
Y575015D02*
X420515Y587765D01*
X526500D02*
X630500D01*
Y541765D02*
Y587765D01*
X526500Y541765D02*
X630500D01*
X526500D02*
Y587765D01*
Y575015D02*
X539250Y587765D01*
X644610D02*
X748610D01*
Y541765D02*
Y587765D01*
X644610Y541765D02*
X748610D01*
X644610D02*
Y587765D01*
Y575015D02*
X657360Y587765D01*
X763118D02*
X867117D01*
Y541765D02*
Y587765D01*
X763118Y541765D02*
X867117D01*
X763118D02*
Y587765D01*
Y575015D02*
X775867Y587765D01*
D15*
X561200Y215620D02*
Y256820D01*
X531000Y215620D02*
X561200D01*
X531000D02*
Y256820D01*
X561200D01*
X597788Y138570D02*
Y255570D01*
X678987D01*
Y138570D02*
Y255570D01*
X597788Y138570D02*
X678987D01*
X478900Y319453D02*
X587900D01*
Y268452D02*
Y319453D01*
X478900Y268452D02*
X587900D01*
X478900D02*
Y319453D01*
X845930Y383790D02*
X954930D01*
Y332790D02*
Y383790D01*
X845930Y332790D02*
X954930D01*
X845930D02*
Y383790D01*
X813688Y399215D02*
Y516215D01*
X894888D01*
Y399215D02*
Y516215D01*
X813688Y399215D02*
X894888D01*
X694830Y398385D02*
Y515385D01*
X776030D01*
Y398385D02*
Y515385D01*
X694830Y398385D02*
X776030D01*
X576323Y399215D02*
Y516215D01*
X657523D01*
Y399215D02*
Y516215D01*
X576323Y399215D02*
X657523D01*
X458213Y399655D02*
Y516655D01*
X539413D01*
Y399655D02*
Y516655D01*
X458213Y399655D02*
X539413D01*
X338833Y399215D02*
Y516215D01*
X420033D01*
Y399215D02*
Y516215D01*
X338833Y399215D02*
X420033D01*
X221145Y399655D02*
Y516655D01*
X302345D01*
Y399655D02*
Y516655D01*
X221145Y399655D02*
X302345D01*
X102612Y399215D02*
Y516215D01*
X183813D01*
Y399215D02*
Y516215D01*
X102612Y399215D02*
X183813D01*
X869990Y192960D02*
Y309960D01*
X951190D01*
Y192960D02*
Y309960D01*
X869990Y192960D02*
X951190D01*
X51135Y590265D02*
X160135D01*
Y539265D02*
Y590265D01*
X51135Y539265D02*
X160135D01*
X51135D02*
Y590265D01*
X287355D02*
X396355D01*
Y539265D02*
Y590265D01*
X287355Y539265D02*
X396355D01*
X287355D02*
Y590265D01*
X169245D02*
X278245D01*
Y539265D02*
Y590265D01*
X169245Y539265D02*
X278245D01*
X169245D02*
Y590265D01*
X405265D02*
X514265D01*
Y539265D02*
Y590265D01*
X405265Y539265D02*
X514265D01*
X405265D02*
Y590265D01*
X524000D02*
X633000D01*
Y539265D02*
Y590265D01*
X524000Y539265D02*
X633000D01*
X524000D02*
Y590265D01*
X642110D02*
X751110D01*
Y539265D02*
Y590265D01*
X642110Y539265D02*
X751110D01*
X642110D02*
Y590265D01*
X760618D02*
X869617D01*
Y539265D02*
Y590265D01*
X760618Y539265D02*
X869617D01*
X760618D02*
Y590265D01*
D28*
X418000Y295000D02*
D03*
X392600D02*
D03*
X367200D02*
D03*
X341800D02*
D03*
X316400D02*
D03*
X291000D02*
D03*
X265600D02*
D03*
X240200D02*
D03*
X214800D02*
D03*
X189400D02*
D03*
X164000D02*
D03*
X138600D02*
D03*
X113200D02*
D03*
X87800D02*
D03*
X62400D02*
D03*
X418000Y39600D02*
D03*
X392600D02*
D03*
X341800D02*
D03*
X291000D02*
D03*
X316400D02*
D03*
X265600D02*
D03*
X240200D02*
D03*
X214800D02*
D03*
X189400D02*
D03*
X164000D02*
D03*
X138600D02*
D03*
X113200D02*
D03*
X87800D02*
D03*
X62400D02*
D03*
X367200D02*
D03*
X870190Y161290D02*
D03*
X900190D02*
D03*
D29*
X665480Y69850D02*
D03*
X614680D02*
D03*
X563880D02*
D03*
X513080D02*
D03*
X64770Y656590D02*
D03*
X13970D02*
D03*
X406525Y653515D02*
D03*
X457325D02*
D03*
X508125D02*
D03*
X558925D02*
D03*
X654050Y652780D02*
D03*
X704850D02*
D03*
X755650D02*
D03*
X806450D02*
D03*
X161415Y653515D02*
D03*
X212215D02*
D03*
X263015D02*
D03*
X313815D02*
D03*
D30*
X920000Y720000D02*
D03*
Y0D02*
D03*
X0D02*
D03*
D31*
X507900Y287453D02*
D03*
X874930Y351790D02*
D03*
X80135Y558265D02*
D03*
X316355D02*
D03*
X198245D02*
D03*
X434265D02*
D03*
X553000D02*
D03*
X671110D02*
D03*
X789617D02*
D03*
D32*
X533400Y287453D02*
D03*
X558900D02*
D03*
X900430Y351790D02*
D03*
X925930D02*
D03*
X105635Y558265D02*
D03*
X131135D02*
D03*
X341855D02*
D03*
X367355D02*
D03*
X223745D02*
D03*
X249245D02*
D03*
X459765D02*
D03*
X485265D02*
D03*
X578500D02*
D03*
X604000D02*
D03*
X696610D02*
D03*
X722110D02*
D03*
X815117D02*
D03*
X840618D02*
D03*
D33*
X655320Y33020D02*
D03*
X847090Y116840D02*
D03*
X312420Y142240D02*
D03*
X386080Y95250D02*
D03*
X778510Y223520D02*
D03*
X702310Y275590D02*
D03*
X655320Y311150D02*
D03*
M02*
