G04*
G04 #@! TF.GenerationSoftware,Altium Limited,Altium Designer,20.0.13 (296)*
G04*
G04 Layer_Physical_Order=2*
G04 Layer_Color=16711680*
%FSLAX44Y44*%
%MOMM*%
G71*
G01*
G75*
%ADD10C,0.2540*%
%ADD14C,0.1000*%
%ADD15C,0.0500*%
%ADD34C,0.8000*%
%ADD35C,1.5240*%
%ADD36C,1.9800*%
%ADD37C,1.5240*%
%ADD38P,3.4641X8X202.5*%
%ADD39P,4.3296X8X22.5*%
%ADD40R,1.9800X1.9800*%
%ADD41C,1.9800*%
%ADD42C,1.2700*%
G36*
X895350Y396240D02*
X833120D01*
Y394970D01*
X775970Y337820D01*
X471170D01*
X469900Y246380D01*
X2540D01*
Y462280D01*
X3810Y463550D01*
X895350D01*
Y396240D01*
D02*
G37*
%LPC*%
G36*
X89070Y305081D02*
Y296270D01*
X97880D01*
X97698Y297652D01*
X96675Y300124D01*
X95046Y302246D01*
X92924Y303875D01*
X90452Y304898D01*
X89070Y305081D01*
D02*
G37*
G36*
X86530D02*
X85148Y304898D01*
X82676Y303875D01*
X80554Y302246D01*
X78925Y300124D01*
X77902Y297652D01*
X77719Y296270D01*
X86530D01*
Y305081D01*
D02*
G37*
G36*
X97880Y293730D02*
X89070D01*
Y284919D01*
X90452Y285102D01*
X92924Y286125D01*
X95046Y287754D01*
X96675Y289876D01*
X97698Y292348D01*
X97880Y293730D01*
D02*
G37*
G36*
X86530D02*
X77719D01*
X77902Y292348D01*
X78925Y289876D01*
X80554Y287754D01*
X82676Y286125D01*
X85148Y285102D01*
X86530Y284919D01*
Y293730D01*
D02*
G37*
G36*
X418000Y305248D02*
X415348Y304898D01*
X412876Y303875D01*
X410754Y302246D01*
X409125Y300124D01*
X408102Y297652D01*
X407752Y295000D01*
X408102Y292348D01*
X409125Y289876D01*
X410754Y287754D01*
X412876Y286125D01*
X415348Y285102D01*
X418000Y284752D01*
X420652Y285102D01*
X423124Y286125D01*
X425246Y287754D01*
X426875Y289876D01*
X427898Y292348D01*
X428248Y295000D01*
X427898Y297652D01*
X426875Y300124D01*
X425246Y302246D01*
X423124Y303875D01*
X420652Y304898D01*
X418000Y305248D01*
D02*
G37*
G36*
X392600D02*
X389948Y304898D01*
X387476Y303875D01*
X385354Y302246D01*
X383725Y300124D01*
X382701Y297652D01*
X382352Y295000D01*
X382701Y292348D01*
X383725Y289876D01*
X385354Y287754D01*
X387476Y286125D01*
X389948Y285102D01*
X392600Y284752D01*
X395252Y285102D01*
X397724Y286125D01*
X399846Y287754D01*
X401475Y289876D01*
X402499Y292348D01*
X402848Y295000D01*
X402499Y297652D01*
X401475Y300124D01*
X399846Y302246D01*
X397724Y303875D01*
X395252Y304898D01*
X392600Y305248D01*
D02*
G37*
G36*
X367200D02*
X364548Y304898D01*
X362076Y303875D01*
X359954Y302246D01*
X358325Y300124D01*
X357301Y297652D01*
X356952Y295000D01*
X357301Y292348D01*
X358325Y289876D01*
X359954Y287754D01*
X362076Y286125D01*
X364548Y285102D01*
X367200Y284752D01*
X369852Y285102D01*
X372324Y286125D01*
X374446Y287754D01*
X376075Y289876D01*
X377099Y292348D01*
X377448Y295000D01*
X377099Y297652D01*
X376075Y300124D01*
X374446Y302246D01*
X372324Y303875D01*
X369852Y304898D01*
X367200Y305248D01*
D02*
G37*
G36*
X341800D02*
X339148Y304898D01*
X336676Y303875D01*
X334554Y302246D01*
X332925Y300124D01*
X331902Y297652D01*
X331552Y295000D01*
X331902Y292348D01*
X332925Y289876D01*
X334554Y287754D01*
X336676Y286125D01*
X339148Y285102D01*
X341800Y284752D01*
X344452Y285102D01*
X346924Y286125D01*
X349046Y287754D01*
X350675Y289876D01*
X351698Y292348D01*
X352048Y295000D01*
X351698Y297652D01*
X350675Y300124D01*
X349046Y302246D01*
X346924Y303875D01*
X344452Y304898D01*
X341800Y305248D01*
D02*
G37*
G36*
X316400D02*
X313748Y304898D01*
X311276Y303875D01*
X309154Y302246D01*
X307525Y300124D01*
X306502Y297652D01*
X306152Y295000D01*
X306502Y292348D01*
X307525Y289876D01*
X309154Y287754D01*
X311276Y286125D01*
X313748Y285102D01*
X316400Y284752D01*
X319052Y285102D01*
X321524Y286125D01*
X323646Y287754D01*
X325275Y289876D01*
X326298Y292348D01*
X326648Y295000D01*
X326298Y297652D01*
X325275Y300124D01*
X323646Y302246D01*
X321524Y303875D01*
X319052Y304898D01*
X316400Y305248D01*
D02*
G37*
G36*
X291000D02*
X288348Y304898D01*
X285876Y303875D01*
X283754Y302246D01*
X282125Y300124D01*
X281101Y297652D01*
X280752Y295000D01*
X281101Y292348D01*
X282125Y289876D01*
X283754Y287754D01*
X285876Y286125D01*
X288348Y285102D01*
X291000Y284752D01*
X293652Y285102D01*
X296124Y286125D01*
X298246Y287754D01*
X299875Y289876D01*
X300898Y292348D01*
X301248Y295000D01*
X300898Y297652D01*
X299875Y300124D01*
X298246Y302246D01*
X296124Y303875D01*
X293652Y304898D01*
X291000Y305248D01*
D02*
G37*
G36*
X265600D02*
X262948Y304898D01*
X260476Y303875D01*
X258354Y302246D01*
X256725Y300124D01*
X255702Y297652D01*
X255352Y295000D01*
X255702Y292348D01*
X256725Y289876D01*
X258354Y287754D01*
X260476Y286125D01*
X262948Y285102D01*
X265600Y284752D01*
X268252Y285102D01*
X270724Y286125D01*
X272846Y287754D01*
X274475Y289876D01*
X275499Y292348D01*
X275848Y295000D01*
X275499Y297652D01*
X274475Y300124D01*
X272846Y302246D01*
X270724Y303875D01*
X268252Y304898D01*
X265600Y305248D01*
D02*
G37*
G36*
X240200D02*
X237548Y304898D01*
X235076Y303875D01*
X232954Y302246D01*
X231325Y300124D01*
X230301Y297652D01*
X229952Y295000D01*
X230301Y292348D01*
X231325Y289876D01*
X232954Y287754D01*
X235076Y286125D01*
X237548Y285102D01*
X240200Y284752D01*
X242852Y285102D01*
X245324Y286125D01*
X247446Y287754D01*
X249075Y289876D01*
X250098Y292348D01*
X250448Y295000D01*
X250098Y297652D01*
X249075Y300124D01*
X247446Y302246D01*
X245324Y303875D01*
X242852Y304898D01*
X240200Y305248D01*
D02*
G37*
G36*
X214800D02*
X212148Y304898D01*
X209676Y303875D01*
X207554Y302246D01*
X205925Y300124D01*
X204902Y297652D01*
X204552Y295000D01*
X204902Y292348D01*
X205925Y289876D01*
X207554Y287754D01*
X209676Y286125D01*
X212148Y285102D01*
X214800Y284752D01*
X217452Y285102D01*
X219924Y286125D01*
X222046Y287754D01*
X223675Y289876D01*
X224699Y292348D01*
X225048Y295000D01*
X224699Y297652D01*
X223675Y300124D01*
X222046Y302246D01*
X219924Y303875D01*
X217452Y304898D01*
X214800Y305248D01*
D02*
G37*
G36*
X189400D02*
X186748Y304898D01*
X184276Y303875D01*
X182154Y302246D01*
X180525Y300124D01*
X179501Y297652D01*
X179152Y295000D01*
X179501Y292348D01*
X180525Y289876D01*
X182154Y287754D01*
X184276Y286125D01*
X186748Y285102D01*
X189400Y284752D01*
X192052Y285102D01*
X194524Y286125D01*
X196646Y287754D01*
X198275Y289876D01*
X199298Y292348D01*
X199648Y295000D01*
X199298Y297652D01*
X198275Y300124D01*
X196646Y302246D01*
X194524Y303875D01*
X192052Y304898D01*
X189400Y305248D01*
D02*
G37*
G36*
X164000D02*
X161348Y304898D01*
X158876Y303875D01*
X156754Y302246D01*
X155125Y300124D01*
X154101Y297652D01*
X153752Y295000D01*
X154101Y292348D01*
X155125Y289876D01*
X156754Y287754D01*
X158876Y286125D01*
X161348Y285102D01*
X164000Y284752D01*
X166652Y285102D01*
X169124Y286125D01*
X171246Y287754D01*
X172875Y289876D01*
X173899Y292348D01*
X174248Y295000D01*
X173899Y297652D01*
X172875Y300124D01*
X171246Y302246D01*
X169124Y303875D01*
X166652Y304898D01*
X164000Y305248D01*
D02*
G37*
G36*
X138600D02*
X135948Y304898D01*
X133476Y303875D01*
X131354Y302246D01*
X129725Y300124D01*
X128701Y297652D01*
X128352Y295000D01*
X128701Y292348D01*
X129725Y289876D01*
X131354Y287754D01*
X133476Y286125D01*
X135948Y285102D01*
X138600Y284752D01*
X141252Y285102D01*
X143724Y286125D01*
X145846Y287754D01*
X147475Y289876D01*
X148498Y292348D01*
X148848Y295000D01*
X148498Y297652D01*
X147475Y300124D01*
X145846Y302246D01*
X143724Y303875D01*
X141252Y304898D01*
X138600Y305248D01*
D02*
G37*
G36*
X113200D02*
X110548Y304898D01*
X108076Y303875D01*
X105954Y302246D01*
X104325Y300124D01*
X103301Y297652D01*
X102952Y295000D01*
X103301Y292348D01*
X104325Y289876D01*
X105954Y287754D01*
X108076Y286125D01*
X110548Y285102D01*
X113200Y284752D01*
X115852Y285102D01*
X118324Y286125D01*
X120446Y287754D01*
X122075Y289876D01*
X123098Y292348D01*
X123448Y295000D01*
X123098Y297652D01*
X122075Y300124D01*
X120446Y302246D01*
X118324Y303875D01*
X115852Y304898D01*
X113200Y305248D01*
D02*
G37*
G36*
X62400D02*
X59748Y304898D01*
X57276Y303875D01*
X55154Y302246D01*
X53525Y300124D01*
X52502Y297652D01*
X52152Y295000D01*
X52502Y292348D01*
X53525Y289876D01*
X55154Y287754D01*
X57276Y286125D01*
X59748Y285102D01*
X62400Y284752D01*
X65052Y285102D01*
X67524Y286125D01*
X69646Y287754D01*
X71275Y289876D01*
X72298Y292348D01*
X72648Y295000D01*
X72298Y297652D01*
X71275Y300124D01*
X69646Y302246D01*
X67524Y303875D01*
X65052Y304898D01*
X62400Y305248D01*
D02*
G37*
%LPD*%
D10*
X-39880Y760730D02*
X960120D01*
Y560730D02*
Y760730D01*
Y160730D02*
Y560730D01*
Y-39270D02*
Y160730D01*
X-39880Y360730D02*
Y760730D01*
Y-39270D02*
Y360730D01*
X710120Y-39270D02*
X960120D01*
X210120D02*
X710120D01*
X-39880D02*
X210120D01*
X-40515Y-38635D02*
X-39245Y-39905D01*
D14*
X558600Y220220D02*
Y252220D01*
X533600Y220220D02*
X558600D01*
X533600D02*
Y252220D01*
X558600D01*
X602787Y164570D02*
Y229570D01*
X673988D01*
Y164570D02*
Y229570D01*
X602787Y164570D02*
X673988D01*
X602787Y189970D02*
X628187Y164570D01*
X481400Y316952D02*
X585400D01*
Y270952D02*
Y316952D01*
X481400Y270952D02*
X585400D01*
X481400D02*
Y316952D01*
Y304202D02*
X494150Y316952D01*
X848430Y381290D02*
X952430D01*
Y335290D02*
Y381290D01*
X848430Y335290D02*
X952430D01*
X848430D02*
Y381290D01*
Y368540D02*
X861180Y381290D01*
X818688Y425215D02*
Y490215D01*
X889887D01*
Y425215D02*
Y490215D01*
X818688Y425215D02*
X889887D01*
X818688Y450615D02*
X844088Y425215D01*
X699830Y424385D02*
Y489385D01*
X771030D01*
Y424385D02*
Y489385D01*
X699830Y424385D02*
X771030D01*
X699830Y449785D02*
X725230Y424385D01*
X581323Y425215D02*
Y490215D01*
X652523D01*
Y425215D02*
Y490215D01*
X581323Y425215D02*
X652523D01*
X581323Y450615D02*
X606723Y425215D01*
X463213Y425655D02*
Y490655D01*
X534412D01*
Y425655D02*
Y490655D01*
X463213Y425655D02*
X534412D01*
X463213Y451055D02*
X488613Y425655D01*
X343833Y425215D02*
Y490215D01*
X415033D01*
Y425215D02*
Y490215D01*
X343833Y425215D02*
X415033D01*
X343833Y450615D02*
X369233Y425215D01*
X226145Y425655D02*
Y490655D01*
X297345D01*
Y425655D02*
Y490655D01*
X226145Y425655D02*
X297345D01*
X226145Y451055D02*
X251545Y425655D01*
X107613Y425215D02*
Y490215D01*
X178813D01*
Y425215D02*
Y490215D01*
X107613Y425215D02*
X178813D01*
X107613Y450615D02*
X133013Y425215D01*
X874990Y218960D02*
Y283960D01*
X946190D01*
Y218960D02*
Y283960D01*
X874990Y218960D02*
X946190D01*
X874990Y244360D02*
X900390Y218960D01*
X53635Y587765D02*
X157635D01*
Y541765D02*
Y587765D01*
X53635Y541765D02*
X157635D01*
X53635D02*
Y587765D01*
Y575015D02*
X66385Y587765D01*
X289855D02*
X393855D01*
Y541765D02*
Y587765D01*
X289855Y541765D02*
X393855D01*
X289855D02*
Y587765D01*
Y575015D02*
X302605Y587765D01*
X171745D02*
X275745D01*
Y541765D02*
Y587765D01*
X171745Y541765D02*
X275745D01*
X171745D02*
Y587765D01*
Y575015D02*
X184495Y587765D01*
X407765D02*
X511765D01*
Y541765D02*
Y587765D01*
X407765Y541765D02*
X511765D01*
X407765D02*
Y587765D01*
Y575015D02*
X420515Y587765D01*
X526500D02*
X630500D01*
Y541765D02*
Y587765D01*
X526500Y541765D02*
X630500D01*
X526500D02*
Y587765D01*
Y575015D02*
X539250Y587765D01*
X644610D02*
X748610D01*
Y541765D02*
Y587765D01*
X644610Y541765D02*
X748610D01*
X644610D02*
Y587765D01*
Y575015D02*
X657360Y587765D01*
X763118D02*
X867117D01*
Y541765D02*
Y587765D01*
X763118Y541765D02*
X867117D01*
X763118D02*
Y587765D01*
Y575015D02*
X775867Y587765D01*
D15*
X561200Y215620D02*
Y256820D01*
X531000Y215620D02*
X561200D01*
X531000D02*
Y256820D01*
X561200D01*
X597788Y138570D02*
Y255570D01*
X678987D01*
Y138570D02*
Y255570D01*
X597788Y138570D02*
X678987D01*
X478900Y319453D02*
X587900D01*
Y268452D02*
Y319453D01*
X478900Y268452D02*
X587900D01*
X478900D02*
Y319453D01*
X845930Y383790D02*
X954930D01*
Y332790D02*
Y383790D01*
X845930Y332790D02*
X954930D01*
X845930D02*
Y383790D01*
X813688Y399215D02*
Y516215D01*
X894888D01*
Y399215D02*
Y516215D01*
X813688Y399215D02*
X894888D01*
X694830Y398385D02*
Y515385D01*
X776030D01*
Y398385D02*
Y515385D01*
X694830Y398385D02*
X776030D01*
X576323Y399215D02*
Y516215D01*
X657523D01*
Y399215D02*
Y516215D01*
X576323Y399215D02*
X657523D01*
X458213Y399655D02*
Y516655D01*
X539413D01*
Y399655D02*
Y516655D01*
X458213Y399655D02*
X539413D01*
X338833Y399215D02*
Y516215D01*
X420033D01*
Y399215D02*
Y516215D01*
X338833Y399215D02*
X420033D01*
X221145Y399655D02*
Y516655D01*
X302345D01*
Y399655D02*
Y516655D01*
X221145Y399655D02*
X302345D01*
X102612Y399215D02*
Y516215D01*
X183813D01*
Y399215D02*
Y516215D01*
X102612Y399215D02*
X183813D01*
X869990Y192960D02*
Y309960D01*
X951190D01*
Y192960D02*
Y309960D01*
X869990Y192960D02*
X951190D01*
X51135Y590265D02*
X160135D01*
Y539265D02*
Y590265D01*
X51135Y539265D02*
X160135D01*
X51135D02*
Y590265D01*
X287355D02*
X396355D01*
Y539265D02*
Y590265D01*
X287355Y539265D02*
X396355D01*
X287355D02*
Y590265D01*
X169245D02*
X278245D01*
Y539265D02*
Y590265D01*
X169245Y539265D02*
X278245D01*
X169245D02*
Y590265D01*
X405265D02*
X514265D01*
Y539265D02*
Y590265D01*
X405265Y539265D02*
X514265D01*
X405265D02*
Y590265D01*
X524000D02*
X633000D01*
Y539265D02*
Y590265D01*
X524000Y539265D02*
X633000D01*
X524000D02*
Y590265D01*
X642110D02*
X751110D01*
Y539265D02*
Y590265D01*
X642110Y539265D02*
X751110D01*
X642110D02*
Y590265D01*
X760618D02*
X869617D01*
Y539265D02*
Y590265D01*
X760618Y539265D02*
X869617D01*
X760618D02*
Y590265D01*
D34*
X137285Y40105D02*
X167390Y10000D01*
X631028D02*
X654048Y33020D01*
X167390Y10000D02*
X631028D01*
X654048Y33020D02*
X655320D01*
X870190Y139940D02*
Y161290D01*
X847090Y116840D02*
X870190Y139940D01*
D35*
X339090Y142240D02*
X386080Y95250D01*
X312420Y142240D02*
X339090D01*
X846824Y580427D02*
X919480Y507772D01*
Y396340D02*
Y507772D01*
X894990Y371850D02*
X919480Y396340D01*
X874930Y351790D02*
X880370Y357230D01*
Y360099D02*
X892121Y371850D01*
X894990D01*
X880370Y357230D02*
Y360099D01*
X808911Y580427D02*
X846824D01*
X507900Y287453D02*
X510180Y289733D01*
Y295550D01*
X527050Y312420D01*
X596265D01*
X633095Y275590D01*
X702310D01*
X533400Y287453D02*
Y288687D01*
X80135Y558265D02*
X85575Y563705D01*
Y566574D01*
X99391Y580390D01*
X176120D02*
X198245Y558265D01*
X99391Y580390D02*
X176120D01*
X215436Y578325D02*
X287815D01*
X288290Y577850D01*
X203685Y566574D02*
X215436Y578325D01*
X203685Y563705D02*
Y566574D01*
X198245Y558265D02*
X203685Y563705D01*
X296770Y577850D02*
X316355Y558265D01*
X288290Y577850D02*
X296770D01*
X321795Y566574D02*
X333546Y578325D01*
X321795Y563705D02*
Y566574D01*
X333546Y578325D02*
X414205D01*
X316355Y558265D02*
X321795Y563705D01*
X414205Y578325D02*
X434265Y558265D01*
X439705Y563705D01*
Y566574D01*
X454791Y581660D01*
X529605D02*
X553000Y558265D01*
X454791Y581660D02*
X529605D01*
X553000Y558265D02*
X555280Y560545D01*
Y575600D01*
X562610Y582930D01*
X646445D01*
X671110Y558265D01*
X673390Y560545D01*
Y565440D01*
X787337Y560545D02*
Y574003D01*
X778410Y582930D02*
X787337Y574003D01*
X690880Y582930D02*
X778410D01*
X673390Y565440D02*
X690880Y582930D01*
X787337Y560545D02*
X789617Y558265D01*
X795058Y566574D02*
X808911Y580427D01*
X795058Y563705D02*
Y566574D01*
X789617Y558265D02*
X795058Y563705D01*
D36*
X-16510Y224790D02*
Y533400D01*
X64770Y614680D02*
Y656590D01*
X-16510Y533400D02*
X64770Y614680D01*
X-16510Y224790D02*
X20840Y187440D01*
X496050D01*
X507900Y199290D01*
Y287453D01*
X778510Y223520D02*
X824230Y269240D01*
X868680D01*
X928890Y329450D01*
X893911Y681957D02*
X948270Y627598D01*
Y342536D02*
Y627598D01*
X928890Y329450D02*
X935184D01*
X682279Y681957D02*
X893911D01*
X935184Y329450D02*
X948270Y342536D01*
X653837Y653515D02*
X682279Y681957D01*
X651635Y653515D02*
X653837D01*
X280096Y685032D02*
X311613Y653515D01*
X44614Y685032D02*
X280096D01*
X311613Y653515D02*
X313815D01*
X16172Y656590D02*
X44614Y685032D01*
X13970Y656590D02*
X16172D01*
X834290Y311150D02*
X874930Y351790D01*
X655320Y311150D02*
X834290D01*
X651635Y653515D02*
X651635D01*
X623848Y681301D02*
X651635Y653515D01*
X591853Y681957D02*
X592509Y681301D01*
X623848D01*
X437169Y681957D02*
X591853D01*
X408727Y653515D02*
X437169Y681957D01*
X406525Y653515D02*
X408727D01*
X313815D02*
X406525D01*
D37*
X418000Y295000D02*
D03*
X392600D02*
D03*
X367200D02*
D03*
X341800D02*
D03*
X316400D02*
D03*
X291000D02*
D03*
X265600D02*
D03*
X240200D02*
D03*
X214800D02*
D03*
X189400D02*
D03*
X164000D02*
D03*
X138600D02*
D03*
X113200D02*
D03*
X87800D02*
D03*
X62400D02*
D03*
X418000Y39600D02*
D03*
X392600D02*
D03*
X341800D02*
D03*
X291000D02*
D03*
X316400D02*
D03*
X265600D02*
D03*
X240200D02*
D03*
X214800D02*
D03*
X189400D02*
D03*
X164000D02*
D03*
X138600D02*
D03*
X113200D02*
D03*
X87800D02*
D03*
X62400D02*
D03*
X367200D02*
D03*
X870190Y161290D02*
D03*
X900190D02*
D03*
D38*
X665480Y69850D02*
D03*
X614680D02*
D03*
X563880D02*
D03*
X513080D02*
D03*
X64770Y656590D02*
D03*
X13970D02*
D03*
X406525Y653515D02*
D03*
X457325D02*
D03*
X508125D02*
D03*
X558925D02*
D03*
X654050Y652780D02*
D03*
X704850D02*
D03*
X755650D02*
D03*
X806450D02*
D03*
X161415Y653515D02*
D03*
X212215D02*
D03*
X263015D02*
D03*
X313815D02*
D03*
D39*
X920000Y720000D02*
D03*
Y0D02*
D03*
X0D02*
D03*
D40*
X507900Y287453D02*
D03*
X874930Y351790D02*
D03*
X80135Y558265D02*
D03*
X316355D02*
D03*
X198245D02*
D03*
X434265D02*
D03*
X553000D02*
D03*
X671110D02*
D03*
X789617D02*
D03*
D41*
X533400Y287453D02*
D03*
X558900D02*
D03*
X900430Y351790D02*
D03*
X925930D02*
D03*
X105635Y558265D02*
D03*
X131135D02*
D03*
X341855D02*
D03*
X367355D02*
D03*
X223745D02*
D03*
X249245D02*
D03*
X459765D02*
D03*
X485265D02*
D03*
X578500D02*
D03*
X604000D02*
D03*
X696610D02*
D03*
X722110D02*
D03*
X815117D02*
D03*
X840618D02*
D03*
D42*
X655320Y33020D02*
D03*
X847090Y116840D02*
D03*
X312420Y142240D02*
D03*
X386080Y95250D02*
D03*
X778510Y223520D02*
D03*
X702310Y275590D02*
D03*
X655320Y311150D02*
D03*
M02*
