M48
;Layer_Color=9474304
;FILE_FORMAT=4:4
METRIC,LZ
;TYPE=PLATED
T1F00S00C0.6600
T2F00S00C0.7110
T3F00S00C0.7112
T4F00S00C0.7620
T5F00S00C1.3200
T6F00S00C1.6002
T7F00S00C3.0000
%
T01
X0090019Y0016129
X0087019
T02
X0065532Y0031115
T03
X0065532Y0003302
X0084709Y0011684
X0038608Y0009525
X0031242Y0014224
X0070231Y0027559
X0077851Y0022352
T04
X000878Y000396
X001132
X001386
X00164
X001894
X002148
X002402
X002656
X00291
X003164
X003418
X003672
X003926
X00418
X000624
Y00295
X000878
X001132
X001386
X00164
X001894
X002148
X002402
X002656
X00291
X003164
X003418
X003672
X003926
X00418
T05
X00080135Y00558265
X00105635
X00131135
X00198245
X00223745
X00249245
X00316355
X00341855
X00367355
X00434265
X00459765
X00485265
X00553
X005785
X00604
X0067111
X0069661
X0072211
X00789617
X00815117
X00840618
X005589Y00287453
X005334
X005079
X0087493Y0035179
X0090043
X0092593
T06
X0051308Y0006985
X0056388
X0061468
X0066548
X0065405Y0065278
X0070485
X0075565
X0080645
X00558925Y00653515
X00508125
X00457325
X00406525
X00313815
X00263015
X00212215
X00161415
X0006477Y0065659
X0001397
T07
X0092Y0
X0
X0092Y0072
M30
